<?xml version="1.0" encoding="UTF-8"?>
<svg xmlns="http://www.w3.org/2000/svg" width="4.63in" height="2.5in" xmlns:xlink="http://www.w3.org/1999/xlink" viewBox="0 0 333 180"><defs><style>.cls-1{fill:url(#linear-gradient);}.cls-2{fill:#0083ad;}.cls-3{fill:#3dae2b;}.cls-4{fill:url(#linear-gradient-2);}.cls-4,.cls-5{mix-blend-mode:multiply;}.cls-6{isolation:isolate;}</style><linearGradient id="linear-gradient" x1="105.98" y1="20.46" x2="1.3" y2="127.38" gradientTransform="matrix(1, 0, 0, 1, 0, 0)" gradientUnits="userSpaceOnUse"><stop offset=".26" stop-color="#0083ad"/><stop offset=".9" stop-color="#fff"/></linearGradient><linearGradient id="linear-gradient-2" x1="69.55" y1="78.79" x2="19.15" y2="18.84" gradientTransform="matrix(1, 0, 0, 1, 0, 0)" gradientUnits="userSpaceOnUse"><stop offset="0" stop-color="#2f923d"/><stop offset="1" stop-color="#3cae49"/></linearGradient></defs><g class="cls-6"><g id="Layer_1"><g><g class="cls-5"><path class="cls-2" d="M93.51,121.38v-36.29h13.27c7.84,0,12.82,3.27,12.82,10.81s-4.98,10.81-12.82,10.81h-6.33v14.68h-6.94Zm6.94-20.31h5.53c5.23,0,6.68-1.96,6.68-5.18s-1.46-5.18-6.68-5.18h-5.53v10.35Z"/><path class="cls-2" d="M141.41,121.88c-9.9,0-15.23-6.79-15.23-18.65s5.33-18.65,15.23-18.65,15.23,6.79,15.23,18.65-5.33,18.65-15.23,18.65Zm0-31.46c-5.68,0-8.29,4.32-8.29,12.82-.1,8.49,2.56,12.82,8.29,12.82s8.29-4.32,8.29-12.82-2.61-12.82-8.29-12.82Z"/><path class="cls-2" d="M165.99,121.38v-36.29h14.47c8.24,0,11.56,4.77,11.61,10.76,.05,4.47-2.21,8.09-6.63,9.35l7.99,16.18h-7.69l-6.84-14.78h-5.98v14.78h-6.94Zm6.94-20.41h5.13c5.43,0,7.09-1.71,7.09-5.13s-2.06-5.13-5.88-5.13h-6.33v10.25Z"/><path class="cls-2" d="M225.51,85.04v5.83h-9.5v30.51h-6.94v-30.51h-9.5v-5.83h25.94Z"/><path class="cls-2" d="M235.26,121.38v-36.29h6.94v36.29h-6.94Z"/><path class="cls-2" d="M273.46,95.65c-1.01-3.07-3.17-5.23-6.58-5.23-4.62,0-7.44,4.32-7.44,12.82-.1,8.49,2.41,12.82,7.64,12.82,3.12,0,5.03-1.11,7.09-5.38l6.43,1.71c-2.16,6.28-6.88,9.5-13.52,9.5-9.25,0-14.58-6.79-14.58-18.65s5.33-18.65,14.58-18.65c6.94,0,10.96,3.12,12.67,9.55l-6.28,1.51Z"/><path class="cls-2" d="M302.31,121.88c-9.9,0-15.23-6.79-15.23-18.65s5.33-18.65,15.23-18.65,15.23,6.79,15.23,18.65-5.33,18.65-15.23,18.65Zm0-31.46c-5.68,0-8.29,4.32-8.29,12.82-.1,8.49,2.56,12.82,8.29,12.82s8.29-4.32,8.29-12.82-2.61-12.82-8.29-12.82Z"/><path class="cls-3" d="M90.76,128.66h2.81l6.46,25.24h.08l6.04-25.24h2.77l5.91,25.24h.08l6.58-25.24h2.81l-8.09,30.27h-2.77l-5.91-24.9h-.08l-5.91,24.9h-2.77l-8.01-30.27Z"/><path class="cls-3" d="M133.36,158.93v-30.27h17.27v2.26h-14.51v11.15h10.44v2.26h-10.44v12.33h15.3v2.26h-18.07Z"/><path class="cls-3" d="M160.83,128.66h2.77v28h13.5v2.26h-16.27v-30.27Z"/><path class="cls-3" d="M185.94,128.66h2.77v28h13.5v2.26h-16.27v-30.27Z"/><path class="cls-3" d="M211.06,128.66h4.65l14.38,25.24h.08v-25.24h2.77v30.27h-2.85l-16.18-28h-.08v28h-2.77v-30.27Z"/><path class="cls-3" d="M245.48,158.93v-30.27h17.27v2.26h-14.51v11.15h10.44v2.26h-10.44v12.33h15.3v2.26h-18.07Z"/><path class="cls-3" d="M272.65,150.46c1.17,4.61,3.86,6.62,8.64,6.62,3.77,0,6.04-2.39,6.04-6.04,0-8.13-16.39-4.95-16.39-14.97,0-4.49,3.1-7.84,8.72-7.84,4.78,0,8.3,2.6,9.68,7.25l-2.39,.71c-1.09-3.35-3.44-5.7-7.29-5.7-3.52,0-5.95,2.01-5.95,5.58,0,2.05,.59,3.52,6.16,5.62,8.51,3.19,10.23,5.28,10.23,9.64,0,5.16-4.32,8.01-9.22,8.01-5.79,0-9.1-2.56-10.77-8.09l2.56-.8Z"/><path class="cls-3" d="M300.11,150.46c1.17,4.61,3.86,6.62,8.64,6.62,3.77,0,6.04-2.39,6.04-6.04,0-8.13-16.39-4.95-16.39-14.97,0-4.49,3.1-7.84,8.72-7.84,4.78,0,8.3,2.6,9.68,7.25l-2.39,.71c-1.09-3.35-3.44-5.7-7.29-5.7-3.52,0-5.95,2.01-5.95,5.58,0,2.05,.59,3.52,6.16,5.62,8.51,3.19,10.23,5.28,10.23,9.64,0,5.16-4.32,8.01-9.22,8.01-5.79,0-9.1-2.56-10.77-8.09l2.56-.8Z"/></g><g><path class="cls-1" d="M18.17,85.09c0,13.32,10.8,24.12,24.12,24.12,13.32,0,24.12-10.8,24.12-24.12v-16.2h16.2c13.32,0,24.12-10.8,24.12-24.12,0-13.32-10.8-24.12-24.12-24.12-13.32,0-24.12,10.8-24.12,24.12v16.2h-16.2c-13.32,0-24.12,10.8-24.12,24.12Zm48.24-24.12v-16.2c0-8.93,7.27-16.2,16.2-16.2,8.93,0,16.2,7.27,16.2,16.2,0,8.93-7.27,16.2-16.2,16.2h-16.2Zm-40.31,24.12c0-8.93,7.27-16.2,16.2-16.2h16.2v16.2c0,8.93-7.27,16.2-16.2,16.2-8.93,0-16.2-7.27-16.2-16.2Z"/><path class="cls-4" d="M15.45,20.65v23.52c0,13.65,11.07,24.71,24.71,24.71h18.32v16.2h7.92V45.29c0-13.61-11.03-24.64-24.64-24.64H15.45Zm7.87,7.87h18.42c9.23,0,16.74,7.51,16.74,16.74v15.7h-18.35c-9.27,0-16.82-7.55-16.82-16.82v-15.63Z"/></g></g></g></g></svg>