<?xml version="1.0" encoding="UTF-8"?><svg xmlns="http://www.w3.org/2000/svg" xmlns:xlink="http://www.w3.org/1999/xlink" viewBox="0 0 836.22 811.3"><defs><style>.d{fill:url(#c);mix-blend-mode:multiply;}.d,.e{isolation:isolate;}.d,.f{stroke-width:0px;}.f{fill:url(#b);}</style><linearGradient id="b" x1="829.2" y1="854.3" x2="-129.77" y2="-125.2" gradientTransform="translate(.18 852.6) scale(1 -1)" gradientUnits="userSpaceOnUse"><stop offset=".26" stop-color="#0083ad"/><stop offset=".9" stop-color="#fff"/></linearGradient><linearGradient id="c" x1="495.43" y1="319.97" x2="33.71" y2="869.18" gradientTransform="translate(.18 852.6) scale(1 -1)" gradientUnits="userSpaceOnUse"><stop offset="0" stop-color="#2f923d"/><stop offset="1" stop-color="#3cae49"/></linearGradient></defs><g class="e"><g id="a"><path class="f" d="M24.92,590.33c0,122.02,98.94,220.96,220.96,220.96s220.96-98.94,220.96-220.96v-148.41h148.41c122.02,0,220.96-98.94,220.96-220.96S737.28,0,615.25,0s-220.96,98.94-220.96,220.96v148.41h-148.41c-122.02,0-220.96,98.94-220.96,220.96ZM466.84,369.37v-148.41c0-81.81,66.6-148.41,148.41-148.41s148.41,66.6,148.41,148.41-66.6,148.41-148.41,148.41h-148.41ZM97.56,590.33c0-81.81,66.6-148.41,148.41-148.41h148.41v148.41c0,81.81-66.6,148.41-148.41,148.41s-148.41-66.6-148.41-148.41Z"/><path class="d" d="M0,0v215.47c0,125.05,101.41,226.37,226.37,226.37h167.83v148.41h72.56V225.73C466.75,101.05,365.71,0,241.03,0,241.03,0,0,0,0,0ZM72.1,72.1h168.75c84.56,0,153.35,68.8,153.35,153.36v143.83h-168.1c-84.92,0-154.09-69.17-154.09-154.09V72.01l.09.09Z"/></g></g></svg>